<svg xmlns="http://www.w3.org/2000/svg" xmlns:xlink="http://www.w3.org/1999/xlink" width="163" height="163" viewBox="0 0 163 163">
  <defs>
    <clipPath id="clip-path">
      <rect id="Rectangle_317" data-name="Rectangle 317" width="163" height="163" transform="translate(-0.233 -0.233)" fill="none"/>
    </clipPath>
  </defs>
  <g id="Groupe_16" data-name="Groupe 16" transform="translate(0.233 0.233)">
    <g id="Groupe_15" data-name="Groupe 15" clip-path="url(#clip-path)">
      <path id="Tracé_36" data-name="Tracé 36" d="M20.433,13.8a6.637,6.637,0,1,0,6.637,6.637A6.62,6.62,0,0,0,20.433,13.8m0,11.072a4.436,4.436,0,1,1,4.435-4.434,4.424,4.424,0,0,1-4.435,4.434" transform="translate(-2.723 -2.724)" fill="#161615"/>
      <path id="Tracé_37" data-name="Tracé 37" d="M48.029,13.8a6.637,6.637,0,1,0,6.637,6.637A6.616,6.616,0,0,0,48.029,13.8m0,11.072A4.436,4.436,0,0,1,44.89,17.3h0a4.436,4.436,0,1,1,3.137,7.572" transform="translate(-8.17 -2.724)" fill="#161615"/>
      <path id="Tracé_38" data-name="Tracé 38" d="M114.335,13.8H89.421a6.637,6.637,0,0,0,0,13.274h24.914a6.637,6.637,0,1,0,0-13.274m0,11.072H89.421a4.436,4.436,0,1,1,0-8.873h24.914a4.436,4.436,0,1,1,0,8.873" transform="translate(-16.342 -2.724)" fill="#161615"/>
      <path id="Tracé_39" data-name="Tracé 39" d="M20.434,55.187a6.638,6.638,0,1,0,6.637,6.639,6.621,6.621,0,0,0-6.637-6.639m0,11.074a4.436,4.436,0,1,1,4.435-4.435,4.425,4.425,0,0,1-4.435,4.435" transform="translate(-2.723 -10.894)" fill="#161615"/>
      <path id="Tracé_40" data-name="Tracé 40" d="M48.029,55.187a6.639,6.639,0,1,0,6.637,6.639,6.619,6.619,0,0,0-6.637-6.639m0,11.074a4.436,4.436,0,1,1,4.435-4.435,4.424,4.424,0,0,1-4.435,4.435" transform="translate(-8.17 -10.894)" fill="#161615"/>
      <path id="Tracé_41" data-name="Tracé 41" d="M114.335,57.389a4.442,4.442,0,0,1,4.438,4.438,1.1,1.1,0,0,0,2.2,0,6.647,6.647,0,0,0-6.639-6.639H89.421a6.638,6.638,0,0,0,0,13.276h11.072a1.1,1.1,0,1,0,0-2.2H89.421a4.436,4.436,0,1,1,0-8.873Z" transform="translate(-16.342 -10.894)" fill="#161615"/>
      <path id="Tracé_42" data-name="Tracé 42" d="M20.434,96.579a6.637,6.637,0,1,0,6.637,6.637,6.622,6.622,0,0,0-6.637-6.637m0,11.074a4.436,4.436,0,1,1,4.435-4.438,4.422,4.422,0,0,1-4.435,4.438" transform="translate(-2.723 -19.065)" fill="#161615"/>
      <path id="Tracé_43" data-name="Tracé 43" d="M48.029,96.579a6.637,6.637,0,1,0,6.637,6.637,6.619,6.619,0,0,0-6.637-6.637m0,11.074a4.436,4.436,0,1,1,4.435-4.438,4.424,4.424,0,0,1-4.435,4.438" transform="translate(-8.17 -19.065)" fill="#161615"/>
      <path id="Tracé_44" data-name="Tracé 44" d="M20.434,137.971a6.637,6.637,0,1,0,6.637,6.637,6.622,6.622,0,0,0-6.637-6.637m0,11.074a4.436,4.436,0,1,1,4.435-4.438,4.423,4.423,0,0,1-4.435,4.438" transform="translate(-2.723 -27.236)" fill="#161615"/>
      <path id="Tracé_45" data-name="Tracé 45" d="M50.569,150.74a6.637,6.637,0,1,0-7.235-1.438,6.619,6.619,0,0,0,7.235,1.438m-5.678-9.268a4.437,4.437,0,1,1-.962,4.833,4.423,4.423,0,0,1,.962-4.833" transform="translate(-8.17 -27.236)" fill="#161615"/>
      <path id="Tracé_46" data-name="Tracé 46" d="M92.626,158.612c7.574,2.641,18.107,4.155,28.9,4.155s21.324-1.514,28.9-4.155c5.63-1.964,12.342-5.451,12.342-10.915V73.079c0-5.412-6.71-8.869-12.339-10.818-7.577-2.622-18.112-4.125-28.9-4.125-.258,0-.514.006-.771.011l-2.28.038V42.625a9.329,9.329,0,0,0-3.247-7.04l-1.47-1.264,1.47-1.264a9.331,9.331,0,0,0,3.247-7.046V9.406A9.418,9.418,0,0,0,109.067,0H9.406A9.418,9.418,0,0,0,0,9.406v16.61a9.319,9.319,0,0,0,3.246,7.04l1.469,1.264L3.246,35.585A9.326,9.326,0,0,0,0,42.631V59.237a9.319,9.319,0,0,0,3.246,7.04l1.47,1.264-1.47,1.265A9.32,9.32,0,0,0,0,75.852V92.458A9.323,9.323,0,0,0,3.246,99.5l1.469,1.263-1.469,1.264A9.322,9.322,0,0,0,0,109.072v16.6a9.418,9.418,0,0,0,9.406,9.407H80.284V147.7c0,5.466,6.711,8.952,12.342,10.915m-12.342-36.8h-7.2a4.436,4.436,0,1,1,0-8.873h7.2Zm0-33.222h-7.2a4.436,4.436,0,1,1,0-8.872h7.2ZM160.565,147.7c0,3.142-3.988,6.35-10.943,8.8-7.431,2.622-17.41,4.066-28.1,4.066s-20.668-1.444-28.1-4.066c-6.954-2.453-10.943-5.661-10.943-8.8V128.368l2.6,1.769c7.009,4.758,20.972,7.714,36.438,7.714s29.426-2.956,36.435-7.714l2.6-1.769Zm0-24.769c0,3.112-3.99,6.287-10.947,8.71-7.43,2.588-17.407,4.014-28.092,4.014s-20.663-1.425-28.094-4.01c-6.958-2.421-10.948-5.593-10.948-8.7V103.46l2.6,1.765c7.015,4.757,20.977,7.712,36.439,7.712s29.426-2.959,36.434-7.722l2.605-1.77Zm0-24.915c0,3.111-3.99,6.285-10.947,8.709-7.431,2.588-17.407,4.014-28.092,4.014s-20.662-1.425-28.095-4.014c-6.958-2.423-10.947-5.6-10.947-8.709V78.527L85.089,80.3c7.016,4.775,20.978,7.74,36.437,7.74s29.428-2.965,36.432-7.739l2.607-1.777ZM121.526,60.337c10.685,0,20.661,1.429,28.092,4.021,6.957,2.427,10.947,5.606,10.947,8.721s-3.99,6.294-10.947,8.721c-7.432,2.592-17.408,4.019-28.092,4.019S100.863,84.391,93.431,81.8c-6.958-2.427-10.947-5.606-10.947-8.721s3.99-6.294,10.947-8.721c7.432-2.593,17.409-4.021,28.095-4.021M2.2,26.016V9.406a7.213,7.213,0,0,1,7.2-7.2h99.661a7.212,7.212,0,0,1,7.2,7.2v16.61a7.212,7.212,0,0,1-7.2,7.2H9.406a7.213,7.213,0,0,1-7.2-7.2m0,33.221V42.625a7.212,7.212,0,0,1,7.2-7.2h99.661a7.211,7.211,0,0,1,7.2,7.2v15.63l-1.57.092c-13.2.77-24.118,3.607-29.954,7.784l-.434.311H9.406a7.213,7.213,0,0,1-7.2-7.2m0,33.221V75.847a7.213,7.213,0,0,1,7.2-7.206H81.615l-.895,2.278a6.328,6.328,0,0,0-.437,2.193v4.4h-7.2a6.638,6.638,0,0,0,0,13.276h7.2v8.87H9.406a7.212,7.212,0,0,1-7.2-7.2m7.2,40.423a7.213,7.213,0,0,1-7.2-7.2V109.068a7.213,7.213,0,0,1,7.2-7.206H80.284v8.873h-7.2a6.637,6.637,0,1,0,0,13.273h7.2v8.873Z" fill="#161615"/>
    </g>
  </g>
</svg>
