<svg xmlns="http://www.w3.org/2000/svg" width="69.778" height="50.513" viewBox="0 0 69.778 50.513">
  <path id="invader" d="M89.112,111.746V105.6H57.576v6.2h12.5v6.184H57.559v-6H51.313V99.242h-6.6v.811c0,3.655-.007,7.31.027,10.962.007.668-.156.927-.871.907-1.764-.047-3.532-.017-5.363-.017V92.723h2.2c1.106,0,2.216-.017,3.323.02.568.02.781-.159.768-.751-.033-1.578-.01-3.157-.01-4.735v-.914c.372-.02.688-.053,1.007-.053,1.578-.007,3.157-.027,4.735.01.615.013.827-.186.8-.807-.053-1.439-.043-2.877-.056-4.32v-.967h5.958V73.84H51.3V67.517h6.317v6.17h6.227v6.406H82.922V73.707h4.462A1.615,1.615,0,0,0,89.229,71.9V67.48h6.413v6.313c-.206.017-.5.06-.781.06-1.688,0-3.376-.023-5.064,0-.206,0-.585.269-.588.415-.04,1.931-.027,3.861-.027,5.875h6.513v6.187h6.2c.027.372.063.661.066.954.01,1.578.033,3.157.01,4.735-.007.552.2.718.728.708,1.578-.027,3.157-.007,4.735-.007h.854v19.146h-6.247V99.239H95.522v12.646h-6.3v6.107H76.728v-6.247h12.4Zm-6.3-25.386v6.433c2.027,0,3.984-.007,5.941.007.492,0,.512-.289.512-.651-.007-1.077,0-2.156,0-3.233V86.36Zm-25.3,6.373h6.439c0-2.02.01-3.977-.02-5.938a.626.626,0,0,0-.409-.452c-1.984-.03-3.971-.02-6.011-.02Z" transform="translate(-38.51 -67.48)"/>
</svg>
