<svg id="Groupe_4" data-name="Groupe 4" xmlns="http://www.w3.org/2000/svg" xmlns:xlink="http://www.w3.org/1999/xlink" width="99.479" height="93.256" viewBox="0 0 99.479 93.256">
  <defs>
    <linearGradient id="linear-gradient" x1="0.5" x2="0.5" y2="1" gradientUnits="objectBoundingBox">
      <stop offset="0" stop-color="#faa2ff"/>
      <stop offset="1" stop-color="#80f4a5"/>
    </linearGradient>
    <clipPath id="clip-path">
      <rect id="Rectangle_311" data-name="Rectangle 311" width="99.479" height="93.256" fill="url(#linear-gradient)"/>
    </clipPath>
  </defs>
  <g id="Groupe_3" data-name="Groupe 3" clip-path="url(#clip-path)">
    <path id="Tracé_2" data-name="Tracé 2" d="M64.34,0H48.427A3.1,3.1,0,0,0,45.2,2.942V90.314a3.1,3.1,0,0,0,3.228,2.942H64.34a3.1,3.1,0,0,0,3.228-2.942V2.942A3.1,3.1,0,0,0,64.34,0" transform="translate(-33.002)" fill="url(#linear-gradient)"/>
    <path id="Tracé_3" data-name="Tracé 3" d="M2.5,28.157A2.505,2.505,0,0,0,0,30.671v73.037a2.517,2.517,0,0,0,2.5,2.514H8.989V28.157Z" transform="translate(0 -20.559)" fill="url(#linear-gradient)"/>
    <path id="Tracé_4" data-name="Tracé 4" d="M199.171,28.157H139.98v78.064h59.191a2.532,2.532,0,0,0,2.514-2.514V30.671a2.52,2.52,0,0,0-2.514-2.514M156.16,97.594a1.557,1.557,0,0,1-1.557,1.557h-6.62a1.558,1.558,0,0,1-1.558-1.557V90.973a1.558,1.558,0,0,1,1.558-1.557h6.62a1.557,1.557,0,0,1,1.557,1.557Zm0-15.833a1.557,1.557,0,0,1-1.557,1.557h-6.62a1.558,1.558,0,0,1-1.558-1.557V75.14a1.558,1.558,0,0,1,1.558-1.557h6.62a1.557,1.557,0,0,1,1.557,1.557Zm0-16.736a1.557,1.557,0,0,1-1.557,1.557h-6.62a1.557,1.557,0,0,1-1.558-1.557V58.4a1.557,1.557,0,0,1,1.558-1.557h6.62A1.557,1.557,0,0,1,156.16,58.4Zm18.407,32.569a1.557,1.557,0,0,1-1.557,1.557h-6.621a1.557,1.557,0,0,1-1.557-1.557V90.973a1.557,1.557,0,0,1,1.557-1.557h6.621a1.557,1.557,0,0,1,1.557,1.557Zm0-15.833a1.557,1.557,0,0,1-1.557,1.557h-6.621a1.557,1.557,0,0,1-1.557-1.557V75.14a1.557,1.557,0,0,1,1.557-1.557h6.621a1.557,1.557,0,0,1,1.557,1.557Zm0-16.736a1.557,1.557,0,0,1-1.557,1.557h-6.621a1.557,1.557,0,0,1-1.557-1.557V58.4a1.557,1.557,0,0,1,1.557-1.557h6.621a1.556,1.556,0,0,1,1.557,1.557Zm18.4,32.569a1.558,1.558,0,0,1-1.557,1.557h-6.621a1.557,1.557,0,0,1-1.557-1.557V90.973a1.557,1.557,0,0,1,1.557-1.557h6.621a1.557,1.557,0,0,1,1.557,1.557Zm0-15.833a1.557,1.557,0,0,1-1.557,1.557h-6.621a1.557,1.557,0,0,1-1.557-1.557V75.14a1.557,1.557,0,0,1,1.557-1.557h6.621a1.557,1.557,0,0,1,1.557,1.557Zm0-16.736a1.557,1.557,0,0,1-1.557,1.557h-6.621a1.557,1.557,0,0,1-1.557-1.557V58.4a1.556,1.556,0,0,1,1.557-1.557h6.621a1.557,1.557,0,0,1,1.557,1.557Zm0-14.385H146.431V35.228h46.537Z" transform="translate(-102.206 -20.559)" fill="url(#linear-gradient)"/>
  </g>
</svg>
