<svg id="Groupe_14" data-name="Groupe 14" xmlns="http://www.w3.org/2000/svg" xmlns:xlink="http://www.w3.org/1999/xlink" width="182.213" height="150.411" viewBox="0 0 182.213 150.411">
  <defs>
    <clipPath id="clip-path">
      <rect id="Rectangle_316" data-name="Rectangle 316" width="182.213" height="150.411" fill="none"/>
    </clipPath>
  </defs>
  <g id="Groupe_13" data-name="Groupe 13" clip-path="url(#clip-path)">
    <path id="Tracé_32" data-name="Tracé 32" d="M182.214,11.18A11.189,11.189,0,0,0,171.038,0H11.18A11.193,11.193,0,0,0,0,11.18V139.23a11.193,11.193,0,0,0,11.18,11.18H171.035a11.193,11.193,0,0,0,11.179-11.18ZM179.683,139.23a8.654,8.654,0,0,1-8.645,8.644H11.18a8.654,8.654,0,0,1-8.645-8.644V31.861H179.683Zm0-109.905H2.536V11.18A8.654,8.654,0,0,1,11.18,2.536H171.035a8.656,8.656,0,0,1,8.648,8.645Z" fill="#161615"/>
    <path id="Tracé_33" data-name="Tracé 33" d="M56.762,109.466l20.652,20.648a1.661,1.661,0,0,0,1.172.464h0a1.639,1.639,0,0,0,1.173-2.814L60.282,108.291,79.762,88.813a1.66,1.66,0,1,0-2.346-2.35L56.761,107.117a1.664,1.664,0,0,0,0,2.349" transform="translate(-12.058 -18.421)" fill="#161615"/>
    <path id="Tracé_34" data-name="Tracé 34" d="M147.955,130.115h0l20.653-20.649a1.664,1.664,0,0,0,0-2.349L147.955,86.464a1.654,1.654,0,0,0-2.347,0,1.663,1.663,0,0,0,0,2.349l19.479,19.478-19.479,19.474a1.664,1.664,0,0,0,0,2.349,1.779,1.779,0,0,0,2.345,0" transform="translate(-31.094 -18.421)" fill="#161615"/>
    <path id="Tracé_35" data-name="Tracé 35" d="M120.193,85.216a1.658,1.658,0,0,0-1.055-.719,1.626,1.626,0,0,0-1.246.233,1.647,1.647,0,0,0-.713,1.051L108.1,129.458a1.661,1.661,0,1,0,3.252.676l9.082-43.67a1.643,1.643,0,0,0-.237-1.248" transform="translate(-23.153 -18.096)" fill="#161615"/>
  </g>
</svg>
