<svg xmlns="http://www.w3.org/2000/svg" xmlns:xlink="http://www.w3.org/1999/xlink" width="178.719" height="175.154" viewBox="0 0 178.719 175.154">
  <defs>
    <clipPath id="clip-path">
      <rect id="Rectangle_315" data-name="Rectangle 315" width="178.72" height="175.154" fill="none"/>
    </clipPath>
  </defs>
  <g id="Groupe_12" data-name="Groupe 12" transform="translate(-308.566 -106.677)">
    <g id="Groupe_11" data-name="Groupe 11" transform="translate(308.566 106.677)" clip-path="url(#clip-path)">
      <path id="Tracé_26" data-name="Tracé 26" d="M107.14,59.034a3.337,3.337,0,0,0-3.334-3.332,6.341,6.341,0,0,1-4.478-10.821,3.336,3.336,0,0,0,0-4.712l-4.765-4.765a3.333,3.333,0,0,0-4.712,0,6.343,6.343,0,0,1-10.821-4.483,3.337,3.337,0,0,0-3.334-3.333H68.956a3.337,3.337,0,0,0-3.332,3.333,6.343,6.343,0,0,1-10.819,4.483,3.333,3.333,0,0,0-4.712,0l-4.765,4.765a3.337,3.337,0,0,0,0,4.712A6.342,6.342,0,0,1,40.845,55.7a3.335,3.335,0,0,0-3.331,3.332v6.739a3.336,3.336,0,0,0,3.331,3.334,6.341,6.341,0,0,1,4.484,10.818,3.338,3.338,0,0,0,0,4.714L50.093,89.4a3.335,3.335,0,0,0,4.713,0,6.239,6.239,0,0,1,4.418-1.882,6.477,6.477,0,0,1,2.488.508,6.166,6.166,0,0,1,3.913,5.855,3.337,3.337,0,0,0,3.332,3.333h6.739a3.338,3.338,0,0,0,3.334-3.333,6.342,6.342,0,0,1,10.82-4.48,3.335,3.335,0,0,0,4.713,0l4.765-4.765a3.339,3.339,0,0,0,0-4.713,6.341,6.341,0,0,1,4.48-10.82,3.338,3.338,0,0,0,3.334-3.334Zm-2.239,7.79-1.405.047a8.585,8.585,0,0,0-5.97,14.415l.96,1.027-6.251,6.252-1.027-.96a8.583,8.583,0,0,0-14.413,5.968l-.047,1.406H67.9l-.047-1.4A8.577,8.577,0,0,0,53.447,87.6l-1.027.96-6.253-6.25.961-1.027a8.584,8.584,0,0,0-5.969-14.414l-1.405-.047V57.985l1.406-.047a8.582,8.582,0,0,0,5.969-14.412L46.166,42.5l6.253-6.253,1.027.96a8.58,8.58,0,0,0,14.411-5.969l.047-1.405h8.842l.047,1.405a8.582,8.582,0,0,0,14.413,5.969l1.027-.96L98.485,42.5l-.96,1.027A8.584,8.584,0,0,0,103.5,57.938l1.405.047Z" transform="translate(-10.238 -7.53)" fill="#161615"/>
      <path id="Tracé_27" data-name="Tracé 27" d="M78.793,51.289A17.584,17.584,0,1,0,96.377,68.874,17.606,17.606,0,0,0,78.793,51.289m0,32.929A15.345,15.345,0,1,1,94.138,68.874,15.364,15.364,0,0,1,78.793,84.218" transform="translate(-16.704 -13.997)" fill="#161615"/>
      <path id="Tracé_28" data-name="Tracé 28" d="M187.988,41.241a2.825,2.825,0,0,0-2.821-2.822,4.621,4.621,0,0,1-3.266-7.882,2.818,2.818,0,0,0,0-3.99l-3.667-3.669a2.828,2.828,0,0,0-3.991,0,4.62,4.62,0,0,1-7.882-3.265,2.825,2.825,0,0,0-2.822-2.822h-5.186a2.825,2.825,0,0,0-2.822,2.822,4.62,4.62,0,0,1-7.882,3.265,2.827,2.827,0,0,0-3.991,0L140,26.546a2.823,2.823,0,0,0,0,3.992,4.62,4.62,0,0,1-3.265,7.882,2.825,2.825,0,0,0-2.821,2.822v5.183a2.825,2.825,0,0,0,2.821,2.823,4.621,4.621,0,0,1,3.265,7.882,2.825,2.825,0,0,0,0,3.992l3.665,3.665a2.9,2.9,0,0,0,3.992,0,4.454,4.454,0,0,1,3.195-1.364,4.916,4.916,0,0,1,1.837.364,4.53,4.53,0,0,1,2.851,4.265,2.825,2.825,0,0,0,2.822,2.823h5.184a2.825,2.825,0,0,0,2.822-2.823,4.62,4.62,0,0,1,7.882-3.266,2.828,2.828,0,0,0,3.993,0l3.664-3.665a2.82,2.82,0,0,0,0-3.992,4.62,4.62,0,0,1,3.265-7.882,2.825,2.825,0,0,0,2.821-2.823Zm-2.237,5.673-1.31.131a6.865,6.865,0,0,0-4.61,11.13l.834,1.019-4.358,4.357-1.019-.835a6.866,6.866,0,0,0-11.128,4.61l-.132,1.309h-6.158l-.132-1.309a6.862,6.862,0,0,0-11.13-4.61l-1.019.835-4.357-4.357.833-1.019a6.865,6.865,0,0,0-4.608-11.13l-1.31-.131V40.753l1.31-.13a6.867,6.867,0,0,0,4.61-11.13l-.835-1.019,4.36-4.356,1.019.834a6.866,6.866,0,0,0,11.129-4.61l.132-1.309h6.16l.132,1.31a6.865,6.865,0,0,0,11.127,4.609l1.018-.835,4.358,4.357-.835,1.019a6.866,6.866,0,0,0,4.611,11.13l1.31.13Z" transform="translate(-36.545 -4.583)" fill="#161615"/>
      <path id="Tracé_29" data-name="Tracé 29" d="M165.922,35.023A13.787,13.787,0,1,0,179.709,48.81a13.8,13.8,0,0,0-13.787-13.787m0,25.335A11.548,11.548,0,1,1,177.47,48.81a11.56,11.56,0,0,1-11.548,11.548" transform="translate(-41.519 -9.558)" fill="#161615"/>
      <path id="Tracé_30" data-name="Tracé 30" d="M126.831,156.849H112.9a1.12,1.12,0,1,0,0,2.239h13.929a1.12,1.12,0,0,0,0-2.239" transform="translate(-30.506 -42.806)" fill="#161615"/>
      <path id="Tracé_31" data-name="Tracé 31" d="M178.719,10.428A10.44,10.44,0,0,0,168.294,0H13.789A13.8,13.8,0,0,0,0,13.788V115.094a13.805,13.805,0,0,0,13.789,13.789h51.6l-.015,1.469c-.114,11.051-2.921,21.065-5.29,26.284l-.388.854H48.11a8.832,8.832,0,0,0,0,17.664h82.5a8.832,8.832,0,0,0,0-17.664h-11.6l-.393-.839a70.3,70.3,0,0,1-5.66-26.285l-.028-1.483h52a13.8,13.8,0,0,0,13.789-13.789Zm-48.108,149.3a6.593,6.593,0,0,1,0,13.186H48.11a6.593,6.593,0,0,1,0-13.186Zm-14.948-4.241.815,2H62.216L63,155.5a75.888,75.888,0,0,0,4.614-25.181l.015-1.439h43.065l.027,1.427a75.319,75.319,0,0,0,4.946,25.177m60.817-40.393a11.563,11.563,0,0,1-11.55,11.551H13.789A11.563,11.563,0,0,1,2.239,115.094V103.682H176.481Zm0-13.65H2.239V13.788A11.562,11.562,0,0,1,13.789,2.239h154.5a8.2,8.2,0,0,1,8.187,8.188Z" transform="translate(0 0)" fill="#161615"/>
    </g>
  </g>
</svg>
